<?xml version="1.0" standalone="no"?><!DOCTYPE svg PUBLIC "-//W3C//DTD SVG 1.1//EN" "http://www.w3.org/Graphics/SVG/1.1/DTD/svg11.dtd"><svg t="1680961857678" class="icon" viewBox="0 0 1213 1024" version="1.1" xmlns="http://www.w3.org/2000/svg" p-id="2204" width="236.9140625" height="200" xmlns:xlink="http://www.w3.org/1999/xlink"><path d="M860.40000019 230.2666666c51.50000039 65.3000001 80.0666666 149.93333349 80.06666661 235.3333333 0 30.33333369-3.63333339 60.3333334-10.83333341 89.1333334-24.4000002 97.73333349-87.00000029 173.33333349-175.96666669 212.33333321l-1.5333337 0.66666708a276.133333 276.133333 0 0 1-204.49999951 7.2l-1.3333333-0.46666669a246.4999998 246.4999998 0 0 1-144.7999998-137.3000001c-33.56666631-81-17.9333332-163.8 41.99999941-220.20000029 25.6666667-24.133333 54.60000029-38.2333333 83.7333334-40.33333302 54.4333333-3.86666631 122.26666641 36.66666709 130.33333389 89.83333302a38.66666661 38.66666661 0 1 1-76.40000068 11.5999998c-1.3333333-8.8999998-31.29999961-25.56666651-48.39999961-24.3333334-11.43333369 0.8333332-24.2333332 8.20000019-36.29999971 19.53333369-35.73333369 33.59999971-44.6666669 83.33333349-23.56666699 134.33333379a169.06666641 169.06666641 0 0 0 99.3999999 94.0666667l1.3333333 0.46666582a198.8666666 198.8666666 0 0 0 147.43333301-5.19999961l1.50000029-0.66666621c66.73333359-29.2333333 113.53333359-85.9666667 132.10000049-160.30000019 21.9999999-88.0999998 0.9-187.06666641-54.9333334-257.83333331-68.19999961-86.43333339-186.3666668-134.46666651-300.53333408-121.9333333-111.76666699 12.30000029-216.5666669 78.93333369-280.03333271 178.2333334-99.76666641 156.1333333-79.33333359 383.3333332 47.83333271 527.4333334a38.66666661 38.66666661 0 0 1-57.9999999 51.09999961C59.66666651 743.6333331 36.00000019 477.50000029 154.00000039 292.8333333 230.00000029 173.9999999 355.76666651 94.23333301 490.76666651 79.39999971c140.16666709-15.4000002 285.06666709 43.6666667 369.63333368 150.86666689z" fill="#5767c3" p-id="2205" data-spm-anchor-id="a313x.7781069.0.i2" class=""></path><path d="M998.3333331 216.7333332a38.66666661 38.66666661 0 0 1 51.66666651 17.86666641 514.7666666 514.7666666 0 0 1 51.16666729 225c0 162.60000029-74.2333333 315.66666709-199.966667 403.56666739-123.3 86.233333-285.93333369 106.06666641-424.7666666 51.80000009l-2.86666699-1.13333379a367.93333301 367.93333301 0 0 1-202.66666611-192.73333359l-1.93333359-4.33333301c-73.8-163.9000002-21.2000001-374.3333332 132.5999997-453.43333301 102.39999961-52.6666667 224.13333339-38.49999961 310.00000078 36.13333272 50.93333349 44.33333291 81.3999999 108.1000002 81.39999991 171.06666679v0.16666699c-0.16666699 92.00000039-64.13333291 174.89999971-151.3333336 176.09999942-55.66666641 0.79999981-107.5333333-35.1666668-123.6666665-86.09999942a38.6333332 38.6333332 0 1 1 73.6666664-23.4c5.76666651 18.166667 27 32.53333359 48.8999997 32.23333301 41.93333349-0.60000029 75.06666651-46.43333349 75.16666671-98.73333281v-0.26666719c0-40.53333339-20.46666709-82.83333339-54.86666661-112.73333291-61.86666709-53.79999961-149.66666631-63.9333334-223.89999961-25.73333349-115.89999961 59.63333291-155.533333 224.0666666-97.50000058 352.99999951l1.96666699 4.33333388a290.93333291 290.93333291 0 0 0 160.33333359 152.46666651l2.89999951 1.13333291c114.8666669 44.8999998 249.99999961 28.3666667 352.29999991-43.16666661 159.43333359-111.49999981 213.99999961-345.23333349 123.53333379-531.43333329a38.66666661 38.66666661 0 0 1 17.8666664-51.66666651z" fill="#5767c3" p-id="2206" data-spm-anchor-id="a313x.7781069.0.i1" class=""></path></svg>